<svg xmlns="http://www.w3.org/2000/svg" xmlns:xlink="http://www.w3.org/1999/xlink" width="358" zoomAndPan="magnify" viewBox="0 0 268.5 73.499998" height="98" preserveAspectRatio="xMidYMid meet" version="1.0"><defs><g/><clipPath id="162b9de494"><path d="M 0.671875 0 L 267.34375 0 L 267.34375 72.394531 L 0.671875 72.394531 Z M 0.671875 0 " clip-rule="nonzero"/></clipPath><clipPath id="359ad2ad23"><path d="M 6.414062 6.8125 L 131.050781 6.8125 L 131.050781 65.769531 L 6.414062 65.769531 Z M 6.414062 6.8125 " clip-rule="nonzero"/></clipPath></defs><g clip-path="url(#162b9de494)"><path stroke-linecap="butt" transform="matrix(0.74632, 0, 0, 0.745479, 0.672917, -0.000000000000010606)" fill="none" stroke-linejoin="miter" d="M -0.00139597 0.000000000000014227 L 357.963522 0.000000000000014227 L 357.963522 97.111429 L -0.00139597 97.111429 L -0.00139597 0.000000000000014227 " stroke="#000000" stroke-width="6" stroke-opacity="1" stroke-miterlimit="4"/></g><g clip-path="url(#359ad2ad23)"><path fill="#000000" d="M 6.417969 6.8125 L 131.046875 6.8125 L 131.046875 65.769531 L 6.417969 65.769531 L 6.417969 6.8125 " fill-opacity="1" fill-rule="nonzero"/></g><g fill="#ffffff" fill-opacity="1"><g transform="translate(29.562645, 46.165765)"><g><path d="M 11.636719 0.367188 C 16.441406 0.367188 20.339844 -2.542969 21.523438 -6.949219 L 18.898438 -6.949219 C 17.882812 -3.984375 15.085938 -2.117188 11.722656 -2.117188 C 7.316406 -2.117188 4.179688 -5.3125 4.179688 -9.886719 C 4.179688 -14.464844 7.316406 -17.65625 11.722656 -17.65625 C 15 -17.65625 17.683594 -15.902344 18.699219 -13.050781 L 21.355469 -13.050781 C 20.054688 -17.402344 16.300781 -20.140625 11.636719 -20.140625 C 5.820312 -20.140625 1.636719 -15.847656 1.636719 -9.886719 C 1.636719 -3.925781 5.820312 0.367188 11.636719 0.367188 Z M 11.636719 0.367188 "/></g></g></g><g fill="#ffffff" fill-opacity="1"><g transform="translate(54.752178, 46.165765)"><g><path d="M 2.882812 0 L 15.199219 0 L 15.199219 -2.316406 L 5.367188 -2.316406 L 5.367188 -8.925781 L 14.179688 -8.925781 L 14.179688 -11.214844 L 5.367188 -11.214844 L 5.367188 -17.457031 L 14.886719 -17.457031 L 14.886719 -19.773438 L 2.882812 -19.773438 Z M 2.882812 0 "/></g></g></g><g fill="#ffffff" fill-opacity="1"><g transform="translate(73.926934, 46.165765)"><g><path d="M 2.882812 0 L 14.972656 0 L 14.972656 -2.371094 L 5.367188 -2.371094 L 5.367188 -19.773438 L 2.882812 -19.773438 Z M 2.882812 0 "/></g></g></g><g fill="#ffffff" fill-opacity="1"><g transform="translate(91.915676, 46.165765)"><g><path d="M 2.882812 0 L 14.972656 0 L 14.972656 -2.371094 L 5.367188 -2.371094 L 5.367188 -19.773438 L 2.882812 -19.773438 Z M 2.882812 0 "/></g></g></g><g fill="#000000" fill-opacity="1"><g transform="translate(179.030554, 45.563603)"><g><path d="M 2.089844 0 L 7.796875 0 L 7.796875 -4.886719 L 10.421875 -4.886719 C 15.449219 -4.886719 18.644531 -7.796875 18.644531 -12.34375 C 18.644531 -16.890625 15.449219 -19.773438 10.421875 -19.773438 L 2.089844 -19.773438 Z M 7.738281 -9.660156 L 7.738281 -14.972656 L 9.886719 -14.972656 C 11.777344 -14.972656 12.878906 -13.953125 12.878906 -12.316406 C 12.878906 -10.648438 11.777344 -9.660156 9.886719 -9.660156 Z M 7.738281 -9.660156 "/></g></g></g><g fill="#000000" fill-opacity="1"><g transform="translate(198.322157, 45.563603)"><g><path d="M 3.25 0 L 9.125 0 L 15.421875 -15.789062 L 15.421875 -19.773438 L 0.875 -19.773438 L 0.875 -14.914062 L 9.207031 -14.914062 Z M 3.25 0 "/></g></g></g></svg>