<svg xmlns="http://www.w3.org/2000/svg" xmlns:xlink="http://www.w3.org/1999/xlink" width="500" zoomAndPan="magnify" viewBox="0 0 375 374.999991" height="500" preserveAspectRatio="xMidYMid meet" version="1.0"><defs><g/><clipPath id="5e93109d3e"><path d="M 55.0625 150.695312 L 318.296875 150.695312 L 318.296875 223.445312 L 55.0625 223.445312 Z M 55.0625 150.695312 " clip-rule="nonzero"/></clipPath><clipPath id="db4bd7f558"><path d="M 60.839844 157.539062 L 186.089844 157.539062 L 186.089844 216.789062 L 60.839844 216.789062 Z M 60.839844 157.539062 " clip-rule="nonzero"/></clipPath></defs><g clip-path="url(#5e93109d3e)"><path stroke-linecap="butt" transform="matrix(0.750401, 0, 0, 0.749155, 55.063693, 150.69563)" fill="none" stroke-linejoin="miter" d="M -0.00158966 -0.00042395 L 350.790126 -0.00042395 L 350.790126 97.10896 L -0.00158966 97.10896 L -0.00158966 -0.00042395 " stroke="#000000" stroke-width="6" stroke-opacity="1" stroke-miterlimit="4"/></g><g clip-path="url(#db4bd7f558)"><path fill="#000000" d="M 60.839844 157.539062 L 186.085938 157.539062 L 186.085938 216.789062 L 60.839844 216.789062 L 60.839844 157.539062 " fill-opacity="1" fill-rule="nonzero"/></g><g fill="#ffffff" fill-opacity="1"><g transform="translate(84.100799, 197.089067)"><g><path d="M 11.695312 0.367188 C 16.519531 0.367188 20.4375 -2.554688 21.632812 -6.984375 L 18.992188 -6.984375 C 17.96875 -4.003906 15.160156 -2.128906 11.78125 -2.128906 C 7.351562 -2.128906 4.203125 -5.335938 4.203125 -9.933594 C 4.203125 -14.535156 7.351562 -17.742188 11.78125 -17.742188 C 15.074219 -17.742188 17.769531 -15.980469 18.792969 -13.113281 L 21.460938 -13.113281 C 20.15625 -17.488281 16.378906 -20.238281 11.695312 -20.238281 C 5.847656 -20.238281 1.644531 -15.925781 1.644531 -9.933594 C 1.644531 -3.945312 5.847656 0.367188 11.695312 0.367188 Z M 11.695312 0.367188 "/></g></g></g><g fill="#ffffff" fill-opacity="1"><g transform="translate(109.414551, 197.089067)"><g><path d="M 2.894531 0 L 15.273438 0 L 15.273438 -2.328125 L 5.394531 -2.328125 L 5.394531 -8.96875 L 14.25 -8.96875 L 14.25 -11.269531 L 5.394531 -11.269531 L 5.394531 -17.542969 L 14.960938 -17.542969 L 14.960938 -19.871094 L 2.894531 -19.871094 Z M 2.894531 0 "/></g></g></g><g fill="#ffffff" fill-opacity="1"><g transform="translate(128.683866, 197.089067)"><g><path d="M 2.894531 0 L 15.046875 0 L 15.046875 -2.382812 L 5.394531 -2.382812 L 5.394531 -19.871094 L 2.894531 -19.871094 Z M 2.894531 0 "/></g></g></g><g fill="#ffffff" fill-opacity="1"><g transform="translate(146.761318, 197.089067)"><g><path d="M 2.894531 0 L 15.046875 0 L 15.046875 -2.382812 L 5.394531 -2.382812 L 5.394531 -19.871094 L 2.894531 -19.871094 Z M 2.894531 0 "/></g></g></g><g fill="#000000" fill-opacity="1"><g transform="translate(234.039613, 196.483935)"><g><path d="M 9.964844 0.425781 C 15.527344 0.425781 18.792969 -3.433594 18.792969 -9.933594 C 18.792969 -16.4375 15.527344 -20.296875 9.964844 -20.296875 C 4.398438 -20.296875 1.136719 -16.4375 1.136719 -9.933594 C 1.136719 -3.433594 4.398438 0.425781 9.964844 0.425781 Z M 6.640625 -9.933594 C 6.640625 -13.371094 7.75 -15.355469 9.964844 -15.355469 C 12.179688 -15.355469 13.285156 -13.371094 13.285156 -9.933594 C 13.285156 -6.527344 12.148438 -4.511719 9.964844 -4.511719 C 7.75 -4.511719 6.640625 -6.5 6.640625 -9.933594 Z M 6.640625 -9.933594 "/></g></g></g><g fill="#000000" fill-opacity="1"><g transform="translate(253.965664, 196.483935)"><g><path d="M 3.265625 0 L 9.167969 0 L 15.5 -15.867188 L 15.5 -19.871094 L 0.878906 -19.871094 L 0.878906 -14.988281 L 9.253906 -14.988281 Z M 3.265625 0 "/></g></g></g></svg>